<mxfile host="app.diagrams.net" modified="2023-08-28T09:25:23.639Z" agent="Mozilla/5.0 (Windows NT 10.0; Win64; x64) AppleWebKit/537.36 (KHTML, like Gecko) Chrome/116.0.0.0 Safari/537.36" etag="Tu0k2XD1vJoUAMKrn7Zx" version="21.6.9" type="github">
  <diagram name="Page-1" id="XM3StgfKLueBJA6qjeQS">
    <mxGraphModel dx="1034" dy="1552" grid="1" gridSize="10" guides="1" tooltips="1" connect="1" arrows="1" fold="1" page="1" pageScale="1" pageWidth="850" pageHeight="1100" math="0" shadow="0">
      <root>
        <mxCell id="0" />
        <mxCell id="1" parent="0" />
        <mxCell id="xbOZq1BWp0Eau18zaujt-9" value="" style="verticalLabelPosition=bottom;html=1;verticalAlign=top;strokeWidth=1;align=center;outlineConnect=0;dashed=0;outlineConnect=0;shape=mxgraph.aws3d.application_server;fillColor=#ECECEC;strokeColor=#5E5E5E;aspect=fixed;" vertex="1" parent="1">
          <mxGeometry x="135" y="360" width="49.6" height="50" as="geometry" />
        </mxCell>
        <mxCell id="xbOZq1BWp0Eau18zaujt-10" value="" style="rounded=1;arcSize=10;dashed=1;fillColor=none;gradientColor=none;dashPattern=1 1;strokeWidth=2;" vertex="1" parent="1">
          <mxGeometry x="65" y="250.25" width="380" height="189.75" as="geometry" />
        </mxCell>
        <mxCell id="xbOZq1BWp0Eau18zaujt-13" value="" style="verticalLabelPosition=bottom;html=1;verticalAlign=top;strokeWidth=1;align=center;outlineConnect=0;dashed=0;outlineConnect=0;shape=mxgraph.aws3d.application_server;fillColor=#ECECEC;strokeColor=#5E5E5E;aspect=fixed;" vertex="1" parent="1">
          <mxGeometry x="295" y="359.13" width="50.46" height="50.87" as="geometry" />
        </mxCell>
        <mxCell id="xbOZq1BWp0Eau18zaujt-16" value="" style="rounded=1;arcSize=10;dashed=1;fillColor=none;gradientColor=none;dashPattern=1 1;strokeWidth=2;" vertex="1" parent="1">
          <mxGeometry x="515" y="250" width="270" height="190" as="geometry" />
        </mxCell>
        <mxCell id="xbOZq1BWp0Eau18zaujt-18" value="" style="verticalLabelPosition=bottom;html=1;verticalAlign=top;strokeWidth=1;align=center;outlineConnect=0;dashed=0;outlineConnect=0;shape=mxgraph.aws3d.elasticLoadBalancing;fillColor=#ECECEC;strokeColor=#5E5E5E;aspect=fixed;" vertex="1" parent="1">
          <mxGeometry x="214.13" y="260" width="41.74" height="40" as="geometry" />
        </mxCell>
        <mxCell id="xbOZq1BWp0Eau18zaujt-19" value="SERVER-1" style="text;html=1;align=center;verticalAlign=middle;resizable=0;points=[];autosize=1;strokeColor=none;fillColor=none;" vertex="1" parent="1">
          <mxGeometry x="70" y="340.56" width="80" height="30" as="geometry" />
        </mxCell>
        <mxCell id="xbOZq1BWp0Eau18zaujt-20" value="SERVER-2" style="text;html=1;align=center;verticalAlign=middle;resizable=0;points=[];autosize=1;strokeColor=none;fillColor=none;" vertex="1" parent="1">
          <mxGeometry x="330" y="340.56" width="80" height="30" as="geometry" />
        </mxCell>
        <mxCell id="xbOZq1BWp0Eau18zaujt-21" value="SERVER-3" style="text;html=1;align=center;verticalAlign=middle;resizable=0;points=[];autosize=1;strokeColor=none;fillColor=none;" vertex="1" parent="1">
          <mxGeometry x="610" y="370.56" width="80" height="30" as="geometry" />
        </mxCell>
        <mxCell id="xbOZq1BWp0Eau18zaujt-22" value="" style="verticalLabelPosition=bottom;html=1;verticalAlign=top;strokeWidth=1;align=center;outlineConnect=0;dashed=0;outlineConnect=0;shape=mxgraph.aws3d.application_server;fillColor=#ECECEC;strokeColor=#5E5E5E;aspect=fixed;" vertex="1" parent="1">
          <mxGeometry x="624.77" y="319.69" width="50.46" height="50.87" as="geometry" />
        </mxCell>
        <mxCell id="xbOZq1BWp0Eau18zaujt-23" value="NLB" style="text;html=1;align=center;verticalAlign=middle;resizable=0;points=[];autosize=1;strokeColor=none;fillColor=none;" vertex="1" parent="1">
          <mxGeometry x="245" y="265" width="50" height="30" as="geometry" />
        </mxCell>
        <mxCell id="xbOZq1BWp0Eau18zaujt-24" value="" style="endArrow=none;html=1;rounded=0;" edge="1" parent="1" target="xbOZq1BWp0Eau18zaujt-18">
          <mxGeometry width="50" height="50" relative="1" as="geometry">
            <mxPoint x="175" y="360" as="sourcePoint" />
            <mxPoint x="225" y="320" as="targetPoint" />
          </mxGeometry>
        </mxCell>
        <mxCell id="xbOZq1BWp0Eau18zaujt-25" value="" style="endArrow=none;html=1;rounded=0;" edge="1" parent="1" source="xbOZq1BWp0Eau18zaujt-13">
          <mxGeometry width="50" height="50" relative="1" as="geometry">
            <mxPoint x="199.8" y="345" as="sourcePoint" />
            <mxPoint x="249.8" y="295" as="targetPoint" />
          </mxGeometry>
        </mxCell>
        <mxCell id="xbOZq1BWp0Eau18zaujt-27" value="&lt;font color=&quot;#ff0000&quot;&gt;host1.lnxadm.xyz&lt;/font&gt;" style="text;html=1;align=center;verticalAlign=middle;resizable=0;points=[];autosize=1;strokeColor=none;fillColor=none;" vertex="1" parent="1">
          <mxGeometry x="94.13000000000001" y="410" width="120" height="30" as="geometry" />
        </mxCell>
        <mxCell id="xbOZq1BWp0Eau18zaujt-29" value="&lt;font color=&quot;#007fff&quot;&gt;host2.lnxadm.xyz&lt;/font&gt;" style="text;html=1;align=center;verticalAlign=middle;resizable=0;points=[];autosize=1;strokeColor=none;fillColor=none;" vertex="1" parent="1">
          <mxGeometry x="260.23" y="410" width="120" height="30" as="geometry" />
        </mxCell>
        <mxCell id="xbOZq1BWp0Eau18zaujt-31" value="&lt;font color=&quot;#67ab9f&quot;&gt;host3.lnxadm.xyz&lt;/font&gt;" style="text;html=1;align=center;verticalAlign=middle;resizable=0;points=[];autosize=1;strokeColor=none;fillColor=none;" vertex="1" parent="1">
          <mxGeometry x="590" y="390" width="120" height="30" as="geometry" />
        </mxCell>
        <mxCell id="xbOZq1BWp0Eau18zaujt-32" value="" style="sketch=0;points=[[0,0,0],[0.25,0,0],[0.5,0,0],[0.75,0,0],[1,0,0],[0,1,0],[0.25,1,0],[0.5,1,0],[0.75,1,0],[1,1,0],[0,0.25,0],[0,0.5,0],[0,0.75,0],[1,0.25,0],[1,0.5,0],[1,0.75,0]];outlineConnect=0;fontColor=#232F3E;gradientColor=#945DF2;gradientDirection=north;fillColor=#5A30B5;strokeColor=#ffffff;dashed=0;verticalLabelPosition=bottom;verticalAlign=top;align=center;html=1;fontSize=12;fontStyle=0;aspect=fixed;shape=mxgraph.aws4.resourceIcon;resIcon=mxgraph.aws4.route_53;" vertex="1" parent="1">
          <mxGeometry x="370" y="40" width="70" height="70" as="geometry" />
        </mxCell>
        <mxCell id="xbOZq1BWp0Eau18zaujt-33" value="host1.lnxadm.xyz&lt;br&gt;host2.lnxadm.xyz&lt;br&gt;host2.lnxadm.xyz&lt;br&gt;nlb.lnxadm.xyz&lt;br&gt;www.lnxadm.xyz" style="text;html=1;align=center;verticalAlign=middle;resizable=0;points=[];autosize=1;strokeColor=none;fillColor=none;" vertex="1" parent="1">
          <mxGeometry x="125" y="-80" width="120" height="90" as="geometry" />
        </mxCell>
        <mxCell id="xbOZq1BWp0Eau18zaujt-34" value="&lt;b&gt;N.V&lt;/b&gt;" style="text;html=1;align=center;verticalAlign=middle;resizable=0;points=[];autosize=1;strokeColor=none;fillColor=none;" vertex="1" parent="1">
          <mxGeometry x="70" y="250.25" width="40" height="30" as="geometry" />
        </mxCell>
        <mxCell id="xbOZq1BWp0Eau18zaujt-35" value="&lt;b&gt;Ohio&lt;/b&gt;" style="text;html=1;align=center;verticalAlign=middle;resizable=0;points=[];autosize=1;strokeColor=none;fillColor=none;" vertex="1" parent="1">
          <mxGeometry x="515" y="250.25" width="50" height="30" as="geometry" />
        </mxCell>
        <mxCell id="xbOZq1BWp0Eau18zaujt-36" value="&lt;span style=&quot;color: rgb(0, 0, 0); font-family: Helvetica; font-size: 12px; font-style: normal; font-variant-ligatures: normal; font-variant-caps: normal; letter-spacing: normal; orphans: 2; text-align: center; text-indent: 0px; text-transform: none; widows: 2; word-spacing: 0px; -webkit-text-stroke-width: 0px; background-color: rgb(251, 251, 251); text-decoration-thickness: initial; text-decoration-style: initial; text-decoration-color: initial; float: none; display: inline !important;&quot;&gt;&lt;b&gt;www.lnxadm.xyz&lt;/b&gt;&lt;/span&gt;" style="text;whiteSpace=wrap;html=1;" vertex="1" parent="1">
          <mxGeometry x="470" y="60" width="90" height="30" as="geometry" />
        </mxCell>
        <mxCell id="xbOZq1BWp0Eau18zaujt-37" value="" style="endArrow=none;html=1;rounded=0;exitX=0.462;exitY=-0.008;exitDx=0;exitDy=0;exitPerimeter=0;" edge="1" parent="1" source="xbOZq1BWp0Eau18zaujt-10">
          <mxGeometry width="50" height="50" relative="1" as="geometry">
            <mxPoint x="340" y="160" as="sourcePoint" />
            <mxPoint x="390" y="110" as="targetPoint" />
          </mxGeometry>
        </mxCell>
        <mxCell id="xbOZq1BWp0Eau18zaujt-38" value="" style="endArrow=none;html=1;rounded=0;exitX=0.389;exitY=0.007;exitDx=0;exitDy=0;exitPerimeter=0;" edge="1" parent="1" source="xbOZq1BWp0Eau18zaujt-16">
          <mxGeometry width="50" height="50" relative="1" as="geometry">
            <mxPoint x="360" y="160" as="sourcePoint" />
            <mxPoint x="410" y="110" as="targetPoint" />
          </mxGeometry>
        </mxCell>
        <mxCell id="xbOZq1BWp0Eau18zaujt-39" value="&lt;b&gt;PROD-ENV&lt;/b&gt;" style="text;html=1;align=center;verticalAlign=middle;resizable=0;points=[];autosize=1;strokeColor=none;fillColor=none;" vertex="1" parent="1">
          <mxGeometry x="190" y="369.57" width="90" height="30" as="geometry" />
        </mxCell>
        <mxCell id="xbOZq1BWp0Eau18zaujt-40" value="&lt;b&gt;DR-EVN&lt;/b&gt;" style="text;html=1;align=center;verticalAlign=middle;resizable=0;points=[];autosize=1;strokeColor=none;fillColor=none;" vertex="1" parent="1">
          <mxGeometry x="690" y="330.13" width="70" height="30" as="geometry" />
        </mxCell>
      </root>
    </mxGraphModel>
  </diagram>
</mxfile>
